<svg width="375" height="339" viewBox="0 0 375 339" fill="none" xmlns="http://www.w3.org/2000/svg">
<path d="M107.186 122.39C81.019 83.5524 14.6581 91.2934 -11.4926 52.4726C-25.7672 31.251 -22.5748 1.95759 -10.2686 -20.4715C-9.09974 -22.5887 -7.8592 -24.6618 -6.54698 -26.6907C-19.4619 -14.7129 -30.8606 -1.19777 -40.4883 13.5525C-58.6334 41.6716 -69.5005 75.9106 -63.1986 108.694C-59.8904 126.012 -52.0006 142.057 -44.2099 157.869L16.5768 281.196C21.8036 291.815 27.3447 302.699 34.4572 312.177C56.7318 284.531 76.7707 255.155 94.3838 224.329C112.33 192.919 127.382 152.378 107.186 122.39Z" fill="url(#paint0_linear_1_985)"/>
<path d="M201.55 160.549C183.356 121.728 175.267 72.5859 137.621 52.0756C108.758 36.3455 68.6797 42.1512 46.6476 17.82C30.719 0.171181 31.2483 -27.799 41.52 -49.2191C44.5375 -55.4135 48.1552 -61.297 52.321 -66.7852C30.788 -56.4668 10.9406 -42.949 -6.54697 -26.6908C-7.85922 -24.6618 -9.09976 -22.5887 -10.2686 -20.4715C-22.5748 1.97411 -25.7672 31.251 -11.4926 52.4726C14.6581 91.2934 81.019 83.5524 107.186 122.39C127.382 152.378 112.33 192.919 94.3838 224.329C76.7706 255.155 56.7318 284.531 34.4571 312.177C39.6852 319.376 46.2915 325.465 53.8924 330.09C77.0492 343.637 106.442 338.013 132.212 330.421C191.874 312.788 248.762 286.857 301.208 253.391C258.169 235.958 221.349 202.678 201.55 160.549Z" fill="#D70060"/>
<path d="M136.794 -88.8669C107.459 -87.1306 78.7535 -79.6269 52.3211 -66.7852C48.1553 -61.297 44.5376 -55.4135 41.5201 -49.2191C31.2484 -27.7163 30.7191 0.171181 46.6642 17.82C68.6798 42.2174 108.758 36.3455 137.638 52.0756C175.284 72.586 183.339 121.728 201.567 160.549C221.416 202.678 258.186 235.958 301.224 253.457C317.919 242.827 334.112 231.464 349.804 219.367C370.116 203.687 389.981 186.286 401.741 163.41C403.781 159.442 405.512 155.322 406.919 151.088C379.549 158.378 350.599 157.067 324.001 147.333C278.034 130.015 245.185 89.8874 214.601 51.3974C203.618 37.5695 192.04 22.1206 192.618 4.47172C193.082 -10.4148 202.162 -23.4488 211.773 -34.7626C213.989 -37.376 216.288 -39.9894 218.554 -42.6194C218.518 -42.7541 218.473 -42.8866 218.422 -43.0164C207.058 -74.4104 170.239 -90.6533 136.794 -88.8669Z" fill="#F18D05"/>
<path d="M192.602 4.53789C192.023 22.1867 203.601 37.6191 214.584 51.4636C245.168 89.8874 278.018 130.015 323.984 147.399C350.582 157.133 379.533 158.444 406.902 151.154C413.7 130.792 413.105 107.702 401.063 90.2182C382.587 63.3398 345.801 58.3776 313.481 54.4244C281.16 50.4712 244.01 41.5061 230.397 11.915C222.607 -5.02259 224.74 -24.9706 218.538 -42.5532C216.272 -39.9233 213.972 -37.3099 211.756 -34.6964C202.146 -23.3827 193.032 -10.299 192.602 4.53789Z" fill="#F2BC06"/>
<defs>
<linearGradient id="paint0_linear_1_985" x1="-19.5415" y1="58.0261" x2="-19.5415" y2="58.0261" gradientUnits="userSpaceOnUse">
<stop offset="1" stop-color="#FF6A00"/>
<stop stop-color="#EE0979"/>
</linearGradient>
</defs>
</svg>
